<svg width="24" height="24" viewBox="0 0 24 24" fill="none" xmlns="http://www.w3.org/2000/svg">
<path d="M12.4 12C12.84 12 13.2168 11.8432 13.5304 11.5296C13.8435 11.2165 14 10.84 14 10.4C14 9.96 13.8435 9.5832 13.5304 9.2696C13.2168 8.95653 12.84 8.8 12.4 8.8C11.96 8.8 11.5835 8.95653 11.2704 9.2696C10.9568 9.5832 10.8 9.96 10.8 10.4C10.8 10.84 10.9568 11.2165 11.2704 11.5296C11.5835 11.8432 11.96 12 12.4 12ZM12.4 20C10.2533 18.1733 8.65013 16.4765 7.5904 14.9096C6.53013 13.3432 6 11.8933 6 10.56C6 8.56 6.64347 6.96667 7.9304 5.78C9.2168 4.59333 10.7067 4 12.4 4C14.0933 4 15.5832 4.59333 16.8696 5.78C18.1565 6.96667 18.8 8.56 18.8 10.56C18.8 11.8933 18.2701 13.3432 17.2104 14.9096C16.1501 16.4765 14.5467 18.1733 12.4 20Z" fill="#474EFF"/>
<path d="M13.6012 9.19895L13.601 9.19883C13.2689 8.8672 12.8667 8.7 12.4 8.7C11.9333 8.7 11.5314 8.8672 11.1997 9.19889C10.8675 9.53108 10.7 9.93324 10.7 10.4C10.7 10.8668 10.8675 11.2687 11.1997 11.6004C11.5314 11.9325 11.9333 12.1 12.4 12.1C12.8668 12.1 13.2689 11.9325 13.6011 11.6003C13.9328 11.2686 14.1 10.8667 14.1 10.4C14.1 9.9333 13.9328 9.53115 13.6012 9.19895ZM7.67323 14.8536L7.67321 14.8535C6.61965 13.297 6.1 11.8666 6.1 10.56C6.1 8.58355 6.7348 7.01847 7.99819 5.85352L7.9982 5.8535C9.26682 4.68324 10.7327 4.1 12.4 4.1C14.0673 4.1 15.5332 4.68324 16.8018 5.8535L16.8018 5.85352C18.0652 7.01847 18.7 8.58355 18.7 10.56C18.7 11.8666 18.1806 13.2971 17.1276 14.8536C16.0848 16.3946 14.5102 18.0663 12.4 19.8686C10.2898 18.0663 8.71543 16.3946 7.67323 14.8536Z" stroke="white" stroke-opacity="0.6" stroke-width="0.2"/>
<circle cx="12.5" cy="10.5" r="2.5" fill="white"/>
</svg>
