<svg width="35" height="35" viewBox="0 0 35 35" fill="none" xmlns="http://www.w3.org/2000/svg">
<path d="M17.5 17.5C18.3021 17.5 18.989 17.2142 19.5606 16.6425C20.1313 16.0718 20.4167 15.3854 20.4167 14.5833C20.4167 13.7812 20.1313 13.0944 19.5606 12.5227C18.989 11.952 18.3021 11.6667 17.5 11.6667C16.6979 11.6667 16.0115 11.952 15.4408 12.5227C14.8692 13.0944 14.5833 13.7812 14.5833 14.5833C14.5833 15.3854 14.8692 16.0718 15.4408 16.6425C16.0115 17.2142 16.6979 17.5 17.5 17.5ZM17.5 32.0833C13.5868 28.7535 10.6643 25.6603 8.73251 22.8039C6.79973 19.9485 5.83334 17.3055 5.83334 14.875C5.83334 11.2292 7.00633 8.32464 9.3523 6.16145C11.6973 3.99825 14.4132 2.91666 17.5 2.91666C20.5868 2.91666 23.3027 3.99825 25.6477 6.16145C27.9937 8.32464 29.1667 11.2292 29.1667 14.875C29.1667 17.3055 28.2008 19.9485 26.269 22.8039C24.3362 25.6603 21.4132 28.7535 17.5 32.0833Z" fill="#474EFF"/>
</svg>
